<mxfile host="Electron" agent="Mozilla/5.0 (Macintosh; Intel Mac OS X 10_15_7) AppleWebKit/537.36 (KHTML, like Gecko) draw.io/26.1.1 Chrome/132.0.6834.210 Electron/34.3.3 Safari/537.36" version="26.1.1">
  <diagram name="Page-1" id="G5JnYchwRmtEGHG9JDSF">
    <mxGraphModel dx="1114" dy="878" grid="1" gridSize="10" guides="1" tooltips="1" connect="1" arrows="1" fold="1" page="1" pageScale="1" pageWidth="827" pageHeight="1169" math="0" shadow="0">
      <root>
        <mxCell id="0" />
        <mxCell id="1" parent="0" />
        <mxCell id="GwuaM5JyCtkKs0PQCqXI-1" style="edgeStyle=orthogonalEdgeStyle;rounded=0;orthogonalLoop=1;jettySize=auto;html=1;entryX=0.5;entryY=0;entryDx=0;entryDy=0;endArrow=block;endFill=1;" edge="1" parent="1">
          <mxGeometry relative="1" as="geometry">
            <mxPoint x="343" y="160" as="sourcePoint" />
            <mxPoint x="343" y="210" as="targetPoint" />
          </mxGeometry>
        </mxCell>
        <mxCell id="GwuaM5JyCtkKs0PQCqXI-2" value="Job&lt;div&gt;runBlocking&lt;/div&gt;" style="rounded=0;whiteSpace=wrap;html=1;" vertex="1" parent="1">
          <mxGeometry x="280" y="120" width="100" height="40" as="geometry" />
        </mxCell>
        <mxCell id="GwuaM5JyCtkKs0PQCqXI-3" style="rounded=0;orthogonalLoop=1;jettySize=auto;html=1;entryX=0.5;entryY=0;entryDx=0;entryDy=0;endArrow=block;endFill=1;exitX=0.5;exitY=1;exitDx=0;exitDy=0;" edge="1" parent="1">
          <mxGeometry relative="1" as="geometry">
            <mxPoint x="332" y="250" as="sourcePoint" />
            <mxPoint x="262" y="320" as="targetPoint" />
          </mxGeometry>
        </mxCell>
        <mxCell id="GwuaM5JyCtkKs0PQCqXI-4" style="rounded=0;orthogonalLoop=1;jettySize=auto;html=1;endArrow=block;endFill=1;exitX=0.5;exitY=1;exitDx=0;exitDy=0;" edge="1" parent="1" source="GwuaM5JyCtkKs0PQCqXI-5" target="GwuaM5JyCtkKs0PQCqXI-7">
          <mxGeometry relative="1" as="geometry" />
        </mxCell>
        <mxCell id="GwuaM5JyCtkKs0PQCqXI-10" style="edgeStyle=orthogonalEdgeStyle;rounded=0;orthogonalLoop=1;jettySize=auto;html=1;entryX=0.5;entryY=1;entryDx=0;entryDy=0;endArrow=block;endFill=1;dashed=1;strokeColor=#FF3333;strokeWidth=2;" edge="1" parent="1">
          <mxGeometry relative="1" as="geometry">
            <mxPoint x="319" y="210" as="sourcePoint" />
            <mxPoint x="319" y="160" as="targetPoint" />
          </mxGeometry>
        </mxCell>
        <mxCell id="GwuaM5JyCtkKs0PQCqXI-5" value="Job&lt;div&gt;coroutineScope&lt;/div&gt;" style="rounded=0;whiteSpace=wrap;html=1;" vertex="1" parent="1">
          <mxGeometry x="280" y="210" width="100" height="40" as="geometry" />
        </mxCell>
        <mxCell id="GwuaM5JyCtkKs0PQCqXI-8" style="rounded=0;orthogonalLoop=1;jettySize=auto;html=1;entryX=0.25;entryY=1;entryDx=0;entryDy=0;exitX=0.443;exitY=-0.025;exitDx=0;exitDy=0;exitPerimeter=0;endArrow=block;endFill=1;dashed=1;strokeColor=#FF3333;strokeWidth=2;" edge="1" parent="1">
          <mxGeometry relative="1" as="geometry">
            <mxPoint x="248.01999999999998" y="319" as="sourcePoint" />
            <mxPoint x="315" y="250" as="targetPoint" />
          </mxGeometry>
        </mxCell>
        <mxCell id="GwuaM5JyCtkKs0PQCqXI-6" value="Deferred&lt;div&gt;dbResultsDeferred&lt;/div&gt;" style="rounded=0;whiteSpace=wrap;html=1;" vertex="1" parent="1">
          <mxGeometry x="190" y="320" width="140" height="40" as="geometry" />
        </mxCell>
        <mxCell id="GwuaM5JyCtkKs0PQCqXI-9" style="rounded=0;orthogonalLoop=1;jettySize=auto;html=1;entryX=0.67;entryY=0.95;entryDx=0;entryDy=0;exitX=0.46;exitY=-0.05;exitDx=0;exitDy=0;exitPerimeter=0;entryPerimeter=0;startArrow=block;startFill=1;endArrow=none;dashed=1;strokeColor=#FF3333;strokeWidth=2;" edge="1" parent="1">
          <mxGeometry relative="1" as="geometry">
            <mxPoint x="419" y="320" as="sourcePoint" />
            <mxPoint x="348" y="250" as="targetPoint" />
          </mxGeometry>
        </mxCell>
        <mxCell id="GwuaM5JyCtkKs0PQCqXI-7" value="Deferred&lt;div&gt;serverResultsDeferred&lt;/div&gt;" style="rounded=0;whiteSpace=wrap;html=1;" vertex="1" parent="1">
          <mxGeometry x="349" y="320" width="150" height="40" as="geometry" />
        </mxCell>
        <mxCell id="GwuaM5JyCtkKs0PQCqXI-11" value="예외 발생" style="text;html=1;align=center;verticalAlign=middle;whiteSpace=wrap;rounded=0;fontColor=#FF3333;fontStyle=1" vertex="1" parent="1">
          <mxGeometry x="120" y="325" width="60" height="30" as="geometry" />
        </mxCell>
        <mxCell id="GwuaM5JyCtkKs0PQCqXI-12" value="" style="shape=mxgraph.mockup.markup.redX;fillColor=#ff0000;html=1;shadow=0;whiteSpace=wrap;strokeColor=none;" vertex="1" parent="1">
          <mxGeometry x="180" y="325" width="20" height="30" as="geometry" />
        </mxCell>
        <mxCell id="GwuaM5JyCtkKs0PQCqXI-13" value="" style="shape=mxgraph.mockup.markup.redX;fillColor=#ff0000;html=1;shadow=0;whiteSpace=wrap;strokeColor=none;" vertex="1" parent="1">
          <mxGeometry x="270" y="215" width="20" height="30" as="geometry" />
        </mxCell>
        <mxCell id="GwuaM5JyCtkKs0PQCqXI-14" value="" style="shape=mxgraph.mockup.markup.redX;fillColor=#ff0000;html=1;shadow=0;whiteSpace=wrap;strokeColor=none;" vertex="1" parent="1">
          <mxGeometry x="270" y="125" width="20" height="30" as="geometry" />
        </mxCell>
        <mxCell id="GwuaM5JyCtkKs0PQCqXI-15" value="예외 전파" style="text;html=1;align=center;verticalAlign=middle;whiteSpace=wrap;rounded=0;fontColor=#FF3333;fontStyle=1" vertex="1" parent="1">
          <mxGeometry x="210" y="270" width="60" height="30" as="geometry" />
        </mxCell>
        <mxCell id="GwuaM5JyCtkKs0PQCqXI-16" value="예외 전파" style="text;html=1;align=center;verticalAlign=middle;whiteSpace=wrap;rounded=0;fontColor=#FF3333;fontStyle=1" vertex="1" parent="1">
          <mxGeometry x="250" y="170" width="60" height="30" as="geometry" />
        </mxCell>
        <mxCell id="GwuaM5JyCtkKs0PQCqXI-17" value="취소 요청" style="text;html=1;align=center;verticalAlign=middle;whiteSpace=wrap;rounded=0;fontColor=#FF3333;fontStyle=1" vertex="1" parent="1">
          <mxGeometry x="394" y="260" width="60" height="30" as="geometry" />
        </mxCell>
      </root>
    </mxGraphModel>
  </diagram>
</mxfile>
